<svg fill="currentColor" width="24" height="24" xmlns="http://www.w3.org/2000/svg"><path d="m12.81 4.41.068.11.053.114 5.5 14.005a1 1 0 0 1-1.813.837l-.049-.106L15.245 16H8.754L7.431 19.37a1 1 0 0 1-1.186.602l-.11-.037a1 1 0 0 1-.602-1.185l.036-.111 5.5-14.005c.3-.763 1.304-.837 1.741-.223ZM12 7.735l-2.461 6.265h4.921L12 7.734Zm5.683-4.664a.75.75 0 0 1 .636 0l.097.055 2.251 1.496.088.068a.75.75 0 0 1-.821 1.236l-.097-.055L18 4.65l-1.836 1.22-.097.055a.75.75 0 0 1-.82-1.236l.087-.068 2.25-1.496.098-.055Z"/></svg>