<svg fill="currentColor" width="24" height="24" xmlns="http://www.w3.org/2000/svg"><path d="m12.585 7.286.062.092.05.105 3.75 9.497a.75.75 0 0 1-1.35.643l-.045-.092-.997-2.526h-4.11l-.997 2.526a.75.75 0 0 1-.876.453l-.097-.03a.75.75 0 0 1-.454-.877l.031-.097 3.75-9.497c.22-.558.944-.624 1.283-.197ZM12 9.8l-1.463 3.705h2.926L12 9.8Zm8.877-6.463a.75.75 0 0 1-.122.971l-.088.069-2.25 1.495a.75.75 0 0 1-.734.055l-.097-.055-2.251-1.495a.75.75 0 0 1 .733-1.304l.097.054 1.836 1.219 1.836-1.219a.75.75 0 0 1 1.04.21Z"/></svg>