<svg xmlns="http://www.w3.org/2000/svg" viewBox="0 0 60 60" style="enable-background:new 0 0 60 60" xml:space="preserve"><path style="fill:#ecf0f1" d="M1 4h55v42H1z"/><path style="fill:#545e73" d="M57 47H0V3h57v44zM2 45h53V5H2v40z"/><path style="fill:#545e73" d="M5 8h47v34H5z"/><path style="fill:#ecf0f1" d="M53 43H4V7h49v36zM6 41h45V9H6v32z"/><circle style="fill:#f3d55a" cx="15" cy="16.569" r="4.569"/><path style="fill:#11a085" d="M51 32.111 50 31 38 20 27.5 31.5l5.483 5.483L37 41h14z"/><path style="fill:#26b999" d="M6 41h31l-4.017-4.017-10.966-10.966L6 40z"/><circle style="fill:#b1d3ef" cx="47.5" cy="44.5" r="12.5"/><path style="fill:#556080" d="M47.5 34c-4.718 0-8.88 3.182-10.121 7.737a1 1 0 1 0 1.93.526A8.51 8.51 0 0 1 47.5 36c4.687 0 8.5 3.813 8.5 8.5S52.187 53 47.5 53a8.51 8.51 0 0 1-7.734-5H45v-2h-8v8h2V50.636C40.933 53.31 44.066 55 47.5 55 53.29 55 58 50.29 58 44.5S53.29 34 47.5 34z"/></svg>