<svg fill="currentColor" xmlns="http://www.w3.org/2000/svg" viewBox="0 0 612.002 612.002" style="enable-background:new 0 0 612.002 612.002" xml:space="preserve"><path d="M594.464 534.414H344.219L606.866 271.77c6.848-6.851 6.848-17.953 0-24.8L407.547 47.65a17.542 17.542 0 0 0-12.401-5.135c-4.65 0-9.11 1.847-12.398 5.135L5.138 425.262c-6.851 6.848-6.851 17.95 0 24.8l114.29 114.287a17.526 17.526 0 0 0 12.398 5.138h462.638c9.684 0 17.536-7.852 17.536-17.536 0-9.686-7.852-17.537-17.536-17.537zM395.145 84.851 569.664 259.37 363.27 465.763 188.753 291.245 395.145 84.851zM294.618 534.414H139.09L42.336 437.66l121.617-121.617 174.519 174.519-43.854 43.852z"/></svg>